HIERARCHY
ROOT Hips
{
	OFFSET 0.000000 0.000000 0.000000
	CHANNELS 6 Xposition Yposition Zposition Xrotation Yrotation Zrotation
	JOINT LeftUpLeg_virtual
	{
		OFFSET 0.000000 0.000000 0.000000
		CHANNELS 3 Xrotation Yrotation Zrotation
		JOINT LeftUpLeg
		{
			OFFSET 15.427100 -6.655098 0.678600
			CHANNELS 3 Xrotation Yrotation Zrotation
			JOINT LeftLeg
			{
				OFFSET 4.081073 -39.591068 13.024000
				CHANNELS 3 Xrotation Yrotation Zrotation
				JOINT LeftFoot
				{
					OFFSET -4.081074 -37.707932 -15.979700
					CHANNELS 3 Xrotation Yrotation Zrotation
					JOINT LeftToeBase
					{
						OFFSET 5.346399 -15.068900 20.645000
						CHANNELS 3 Xrotation Yrotation Zrotation
						JOINT LeftToe_End
						{
							OFFSET 2.754700 0.931300 11.300900
							CHANNELS 3 Xrotation Yrotation Zrotation
							End Site
							{
								OFFSET 0 0 0
							}
						}
					}
				}
			}
		}
	}
	JOINT RightUpLeg_virtual
	{
		OFFSET 0.000000 0.000000 0.000000
		CHANNELS 3 Xrotation Yrotation Zrotation
		JOINT RightUpLeg
		{
			OFFSET -15.569500 -6.655098 0.678600
			CHANNELS 3 Xrotation Yrotation Zrotation
			JOINT RightLeg
			{
				OFFSET -4.081825 -39.591045 13.023800
				CHANNELS 3 Xrotation Yrotation Zrotation
				JOINT RightFoot
				{
					OFFSET 4.081824 -37.707954 -15.979600
					CHANNELS 3 Xrotation Yrotation Zrotation
					JOINT RightToeBase
					{
						OFFSET -5.346400 -15.068900 20.645000
						CHANNELS 3 Xrotation Yrotation Zrotation
						JOINT RightToe_End
						{
							OFFSET -2.754700 0.931300 11.300900
							CHANNELS 3 Xrotation Yrotation Zrotation
							End Site
							{
								OFFSET 0 0 0
							}
						}
					}
				}
			}
		}
	}
	JOINT Spine_virtual
	{
		OFFSET 0.000000 0.000000 0.000000
		CHANNELS 3 Xrotation Yrotation Zrotation
		JOINT Spine
		{
			OFFSET -0.279200 12.230698 -2.892100
			CHANNELS 3 Xrotation Yrotation Zrotation
			JOINT Spine1
			{
				OFFSET -0.232667 10.192268 -1.242267
				CHANNELS 3 Xrotation Yrotation Zrotation
				JOINT Spine1_split
				{
					OFFSET -0.232667 10.192268 -1.242267
					CHANNELS 3 Xrotation Yrotation Zrotation
					JOINT Spine2
					{
						OFFSET -0.232667 10.192268 -1.242267
						CHANNELS 3 Xrotation Yrotation Zrotation
						JOINT Neck_virtual
						{
							OFFSET 0.000000 0.000000 0.000000
							CHANNELS 3 Xrotation Yrotation Zrotation
							JOINT Neck
							{
								OFFSET -0.418800 17.814194 8.416900
								CHANNELS 3 Xrotation Yrotation Zrotation
								JOINT Head
								{
									OFFSET 0.000000 7.031097 3.806800
									CHANNELS 3 Xrotation Yrotation Zrotation
									JOINT HeadTop_End
									{
										OFFSET 0.000000 24.646606 12.978600
										CHANNELS 3 Xrotation Yrotation Zrotation
										End Site
										{
											OFFSET 0 0 0
										}
									}
								}
							}
						}
						JOINT LeftShoulder_virtual
						{
							OFFSET 0.000000 0.000000 0.000000
							CHANNELS 3 Xrotation Yrotation Zrotation
							JOINT LeftShoulder
							{
								OFFSET 8.476499 7.247704 -3.868750
								CHANNELS 3 Xrotation Yrotation Zrotation
								JOINT LeftShoulder_split
								{
									OFFSET 8.476499 7.247704 -3.868750
									CHANNELS 3 Xrotation Yrotation Zrotation
									JOINT LeftArm
									{
										OFFSET 9.308998 -2.777710 0.208600
										CHANNELS 3 Xrotation Yrotation Zrotation
										JOINT LeftForeArm
										{
											OFFSET 29.972298 0.000000 0.000000
											CHANNELS 3 Xrotation Yrotation Zrotation
											JOINT LeftHand
											{
												OFFSET 26.026505 0.000000 0.000000
												CHANNELS 3 Xrotation Yrotation Zrotation
												End Site
												{
													OFFSET 0 0 0
												}
											}
										}
									}
								}
							}
						}
						JOINT RightShoulder_virtual
						{
							OFFSET 0.000000 0.000000 0.000000
							CHANNELS 3 Xrotation Yrotation Zrotation
							JOINT RightShoulder
							{
								OFFSET -7.570500 7.247704 -3.868750
								CHANNELS 3 Xrotation Yrotation Zrotation
								JOINT RightShoulder_split
								{
									OFFSET -7.570500 7.247704 -3.868750
									CHANNELS 3 Xrotation Yrotation Zrotation
									JOINT RightArm
									{
										OFFSET -9.308998 -2.777710 0.208500
										CHANNELS 3 Xrotation Yrotation Zrotation
										JOINT RightForeArm
										{
											OFFSET -29.972300 0.000000 0.000000
											CHANNELS 3 Xrotation Yrotation Zrotation
											JOINT RightHand
											{
												OFFSET -26.026505 0.000000 0.000000
												CHANNELS 3 Xrotation Yrotation Zrotation
												End Site
												{
													OFFSET 0 0 0
												}
											}
										}
									}
								}
							}
						}
					}
				}
			}
		}
	}
}
MOTION
Frames: 7
Frame Time: 0.03333333
-4.451093 41.080086 -2.163139 0.000000 0.000000 0.000000 -176.574023 39.238600 171.021134 -80.543824 -23.553564 22.128290 105.646347 -11.769621 1.113540 -20.795896 24.524937 -19.479235 2.001398 -6.790646 3.346295 0.000000 0.000000 0.000000 -176.109994 41.920337 169.192569 -46.068188 21.807551 -15.540917 94.600702 5.567613 -1.109760 -25.432018 -25.331153 39.226395 -1.057036 4.105908 -19.243802 0.000000 0.000000 0.000000 -178.701791 39.890784 173.961066 7.824472 1.534389 -5.523752 6.260640 0.330217 -3.469221 0.096402 0.156019 -0.003770 0.000000 0.000000 0.000000 9.398282 3.593328 -2.732812 -11.302326 12.487126 12.879882 -13.471468 28.448822 -18.351356 0.000000 0.000000 0.000000 6.296457 2.271064 -3.985824 1.367868 -12.754688 -7.172738 -1.610908 -4.567795 -3.359401 -8.410928 -10.444559 -29.813325 58.363099 -36.585751 18.259387 0.000000 0.000000 0.000000 8.329612 2.007907 -2.809119 -4.876124 -8.110440 15.139406 -25.165098 -11.311677 5.347382 25.749559 3.958840 42.751868 19.528757 67.611756 12.083093 0.000000 0.000000 0.000000 
-4.456469 41.067635 -2.155262 0.000000 0.000000 0.000000 -176.595197 39.228024 171.010411 -80.590365 -23.550948 22.153719 105.645323 -11.782819 1.099243 -20.792474 24.496038 -19.481071 2.040209 -6.782160 3.359993 0.000000 0.000000 0.000000 -176.133817 41.903696 169.182884 -46.066436 21.780729 -15.569018 94.594090 5.570458 -1.112165 -25.435872 -25.342532 39.221531 -1.041317 4.093124 -19.243484 0.000000 0.000000 0.000000 -178.724932 39.878421 173.947897 7.809102 1.546751 -5.539940 6.272165 0.330814 -3.478141 0.097371 0.156275 -0.003435 0.000000 0.000000 0.000000 9.396723 3.593457 -2.740245 -11.370580 12.504180 12.916111 -13.485011 28.240600 -18.351002 0.000000 0.000000 0.000000 6.301832 2.268900 -3.992563 1.351713 -12.783865 -7.197086 -1.572602 -4.550660 -3.344987 -8.472320 -10.439897 -29.751443 58.406751 -36.656659 18.278894 0.000000 0.000000 0.000000 8.331884 2.007875 -2.820391 -4.900205 -8.123914 15.100566 -25.148572 -11.334814 5.330302 25.747009 4.055022 42.756738 19.491808 67.495622 12.159765 0.000000 0.000000 0.000000 
-4.458516 41.053764 -2.147633 0.000000 0.000000 0.000000 -176.611535 39.214602 170.995849 -80.631428 -23.550491 22.177044 105.646088 -11.793174 1.081352 -20.789692 24.471033 -19.479228 2.065508 -6.774203 3.369628 0.000000 0.000000 0.000000 -176.150770 41.886924 169.164538 -46.055224 21.758657 -15.595893 94.582902 5.574159 -1.114559 -25.432520 -25.351606 39.224847 -1.030745 4.083254 -19.243418 0.000000 0.000000 0.000000 -178.741502 39.861790 173.929428 7.785100 1.557874 -5.560527 6.288015 0.330607 -3.485912 0.097370 0.156541 -0.003526 0.000000 0.000000 0.000000 9.403611 3.592397 -2.746608 -11.425957 12.523663 12.948198 -13.490115 28.047849 -18.336029 0.000000 0.000000 0.000000 6.312779 2.265835 -3.999214 1.336893 -12.827984 -7.223613 -1.540659 -4.519340 -3.332175 -8.536908 -10.418508 -29.665643 58.439221 -36.741954 18.302370 0.000000 0.000000 0.000000 8.340275 2.006770 -2.830274 -4.924507 -8.155855 15.060415 -25.134043 -11.364671 5.315169 25.730369 4.159446 42.767807 19.463292 67.368096 12.223081 0.000000 0.000000 0.000000 
-4.457395 41.038387 -2.140247 0.000000 0.000000 0.000000 -176.623692 39.197417 170.977653 -80.676876 -23.560256 22.195542 105.655534 -11.799731 1.062689 -20.779085 24.448121 -19.474126 2.072838 -6.766453 3.372410 0.000000 0.000000 0.000000 -176.161794 41.870634 169.138925 -46.032524 21.742411 -15.618467 94.570109 5.576328 -1.116876 -25.426658 -25.360752 39.234980 -1.024204 4.077582 -19.243771 0.000000 0.000000 0.000000 -178.751952 39.840558 173.907681 7.753230 1.568979 -5.583072 6.308233 0.329764 -3.491527 0.096253 0.157780 -0.004480 0.000000 0.000000 0.000000 9.418442 3.591020 -2.750596 -11.468365 12.543492 12.977712 -13.484476 27.877757 -18.304328 0.000000 0.000000 0.000000 6.329758 2.262609 -4.004481 1.324345 -12.890534 -7.248451 -1.514214 -4.479440 -3.322572 -8.597204 -10.372423 -29.558272 58.463086 -36.855523 18.338298 0.000000 0.000000 0.000000 8.355347 2.005166 -2.837582 -4.946633 -8.202612 15.018411 -25.122722 -11.395124 5.302074 25.707275 4.264972 42.792993 19.445844 67.220584 12.269892 0.000000 0.000000 0.000000 
-4.453519 41.019821 -2.135632 0.000000 0.000000 0.000000 -176.631219 39.176182 170.954799 -80.735349 -23.586740 22.205683 105.676721 -11.804315 1.044925 -20.748672 24.424502 -19.474087 2.070106 -6.758171 3.367409 0.000000 0.000000 0.000000 -176.168337 41.853695 169.108421 -45.992517 21.732465 -15.637192 94.562801 5.574502 -1.117834 -25.430083 -25.373897 39.241175 -1.012773 4.075450 -19.243177 0.000000 0.000000 0.000000 -178.758003 39.813904 173.886767 7.716268 1.582018 -5.604136 6.334116 0.328960 -3.493402 0.094566 0.159767 -0.005695 0.000000 0.000000 0.000000 9.440402 3.589967 -2.751452 -11.500518 12.561271 13.006334 -13.466123 27.738134 -18.256631 0.000000 0.000000 0.000000 6.353507 2.259801 -4.006708 1.315079 -12.971234 -7.270132 -1.495742 -4.448582 -3.317422 -8.646371 -10.299469 -29.434878 58.489505 -37.011009 18.400214 0.000000 0.000000 0.000000 8.377624 2.004011 -2.840867 -4.964072 -8.261407 14.970921 -25.104743 -11.414525 5.291510 25.679075 4.365614 42.840282 19.442716 67.058934 12.293868 0.000000 0.000000 0.000000 
-4.448038 40.997055 -2.135216 0.000000 0.000000 0.000000 -176.632913 39.150316 170.925634 -80.814231 -23.630079 22.204979 105.708796 -11.809181 1.029084 -20.692927 24.398745 -19.485309 2.069648 -6.748814 3.355757 0.000000 0.000000 0.000000 -176.169129 41.834588 169.073150 -45.931687 21.730290 -15.651380 94.563307 5.566694 -1.117836 -25.452780 -25.394978 39.238976 -0.995807 4.077231 -19.240412 0.000000 0.000000 0.000000 -178.760052 39.783779 173.866645 7.679674 1.598127 -5.620443 6.367243 0.328593 -3.490608 0.093313 0.161980 -0.006613 0.000000 0.000000 0.000000 9.469443 3.589699 -2.748582 -11.525198 12.574590 13.035385 -13.432865 27.642004 -18.198610 0.000000 0.000000 0.000000 6.385047 2.257465 -4.004334 1.309940 -13.064969 -7.284766 -1.479361 -4.424370 -3.317520 -8.684227 -10.200630 -29.303687 58.529237 -37.215085 18.499306 0.000000 0.000000 0.000000 8.408229 2.003708 -2.839402 -4.974838 -8.329310 14.913556 -25.086353 -11.422125 5.276725 25.642641 4.453215 42.914133 19.458294 66.898363 12.286225 0.000000 0.000000 0.000000 
-4.442389 40.970146 -2.136799 0.000000 0.000000 0.000000 -176.628132 39.119902 170.891101 -80.911452 -23.687753 22.191822 105.747502 -11.815669 1.014410 -20.614819 24.370962 -19.508777 2.077570 -6.738556 3.342676 0.000000 0.000000 0.000000 -176.163023 41.811922 169.035120 -45.849667 21.738385 -15.661521 94.576448 5.553891 -1.119412 -25.495185 -25.424408 39.232952 -0.988224 4.084650 -19.234586 0.000000 0.000000 0.000000 -178.757020 39.751042 173.846100 7.648270 1.618423 -5.630008 6.408451 0.328625 -3.483343 0.092468 0.165023 -0.007693 0.000000 0.000000 0.000000 9.505249 3.590549 -2.742915 -11.543395 12.580647 13.067632 -13.379755 27.599637 -18.138942 0.000000 0.000000 0.000000 6.424645 2.255420 -3.997238 1.309023 -13.162473 -7.291881 -1.461090 -4.410686 -3.319794 -8.721199 -10.080799 -29.173907 58.587860 -37.462604 18.639294 0.000000 0.000000 0.000000 8.446579 2.004456 -2.834029 -4.977173 -8.402618 14.843246 -25.069723 -11.424928 5.257921 25.589852 4.528949 43.016688 19.498619 66.748802 12.237944 0.000000 0.000000 0.000000 
